<svg width="180" height="47" viewBox="0 0 175 44" fill="none" xmlns="http://www.w3.org/2000/svg">
<path d="M25.7755 0.849767C23.0475 0.993009 21.0017 3.4475 21.0017 6.18417V16.5152H0.819824C0.819824 20.0996 1.93572 23.4219 3.8404 26.1527C1.97608 27.9879 0.819824 30.5418 0.819824 33.367H15.9562H17.638C18.8144 33.367 19.8252 33.367 21.0017 33.367C26.5743 33.367 31.0926 28.8398 31.0926 23.2559C31.0926 22.7607 31.0926 6.01237 31.0926 5.89853C31.0926 3.01609 28.6859 0.697257 25.7755 0.849767Z" fill="white"/>
<path d="M22.2382 27.9325C24.4638 27.091 26.0473 24.9377 26.0473 22.4134C26.0473 19.1559 23.4118 16.5153 20.1609 16.5153H13.4336C13.4337 22.0173 17.1842 26.616 22.2382 27.9325Z" fill="#FF6230"/>
<path d="M33.363 5.95105V9.26895H36.1381C36.1381 7.60903 34.9398 6.2302 33.363 5.95105Z" fill="#FFD87D"/>
<path d="M26.0682 5.05591C25.604 5.05591 25.2273 5.43339 25.2273 5.89851C25.2273 6.36362 25.604 6.7411 26.0682 6.7411C26.5324 6.7411 26.9091 6.36362 26.9091 5.89851C26.9091 5.43339 26.5324 5.05591 26.0682 5.05591Z" fill="black"/>
<path d="M19.3412 24.0985C19.8053 24.0985 20.1821 23.721 20.1821 23.2559C20.1821 22.7908 19.8053 22.4133 19.3412 22.4133C18.877 22.4133 18.5002 22.7908 18.5002 23.2559C18.5002 23.721 18.877 24.0985 19.3412 24.0985Z" fill="black"/>
<path d="M0.840917 34.2096H15.1363V41.4559H14.2954C13.831 41.4559 13.4545 41.8331 13.4545 42.2985C13.4545 42.7638 13.831 43.1411 14.2954 43.1411H24.3863C24.8507 43.1411 25.2273 42.7638 25.2273 42.2985C25.2273 41.8331 24.8507 41.4559 24.3863 41.4559H21.8636V34.1775C27.5 33.7458 31.9545 29.0124 31.9545 23.2559V10.1115H36.1591C36.6234 10.1115 37 9.73429 37 9.26893C37 6.94588 35.1138 5.05593 32.7954 5.05593H31.8945C31.4848 2.15048 28.9127 -0.156805 25.7525 0.00834469C22.5876 0.174505 20.1818 2.98322 20.1818 6.18417V15.6726C18.2533 15.6726 3.03302 15.6726 0.840917 15.6726C0.376478 15.6726 0 16.0498 0 16.5152C0 19.9284 0.961841 23.2137 2.78772 26.0606C0.985386 28.0718 0 30.6398 0 33.367C0 33.8324 0.376478 34.2096 0.840917 34.2096ZM16.8182 41.4559V34.2096C17.84 34.2096 19.1814 34.2096 20.1818 34.2096V41.4559H16.8182ZM35.174 8.42633H31.9545V6.74113H32.7954C33.8917 6.74113 34.827 7.44554 35.174 8.42633ZM20.1818 17.3578C22.9639 17.3578 25.2273 19.6257 25.2273 22.4133C25.2273 25.2021 22.9754 27.4688 20.1818 27.4688H17.6591C14.6619 27.4688 11.8183 26.2326 9.77162 24.0984H15.9773C16.4417 24.0984 16.8182 23.7212 16.8182 23.2558C16.8182 22.7904 16.4417 22.4132 15.9773 22.4132H8.4455C8.10274 21.8767 7.81027 21.3129 7.56699 20.728H14.2954C14.7599 20.728 15.1363 20.3508 15.1363 19.8854C15.1363 19.4201 14.7599 19.0428 14.2954 19.0428H7.02031C6.89005 18.4898 6.80243 17.9266 6.7592 17.3576H20.1818V17.3578ZM5.07426 17.3578C5.50817 23.9414 10.9652 29.1541 17.6591 29.1541H20.1818C23.8849 29.1541 26.9091 26.1527 26.9091 22.4134C26.9091 19.2782 24.7619 16.6362 21.8637 15.886V6.18417C21.8637 3.82178 23.6478 1.80628 25.8405 1.69118C28.2826 1.56294 30.2728 3.50842 30.2728 5.89862V23.256C30.2728 28.3666 26.1232 32.5245 21.0228 32.5245C19.8464 32.5245 18.8356 32.5245 17.6592 32.5245C9.22881 32.5245 2.14425 25.9032 1.70361 17.3579H5.07426V17.3578ZM3.79405 27.4733C5.51036 29.6509 7.69464 31.3683 10.1477 32.5244H1.71917C1.88542 30.6593 2.60432 28.914 3.79405 27.4733Z" fill="#696969"/>
<path d="M62.608 32.448C59.2587 32.448 56.4747 31.3387 54.256 29.12C52.0587 26.9013 50.96 24.128 50.96 20.8C50.96 17.472 52.0587 14.7093 54.256 12.512C56.4533 10.272 59.2373 9.152 62.608 9.152C64.6133 9.152 66.4693 9.62133 68.176 10.56C69.8827 11.4773 71.2267 12.736 72.208 14.336L67.792 16.896C67.3013 16.0213 66.5973 15.3493 65.68 14.88C64.784 14.3893 63.76 14.144 62.608 14.144C60.6027 14.144 59.0133 14.752 57.84 15.968C56.6667 17.1627 56.08 18.7733 56.08 20.8C56.08 22.8267 56.6667 24.4373 57.84 25.632C59.0133 26.848 60.6027 27.456 62.608 27.456C63.7387 27.456 64.7627 27.2107 65.68 26.72C66.6187 26.2293 67.3227 25.5573 67.792 24.704L72.208 27.264C71.248 28.864 69.9147 30.1333 68.208 31.072C66.5013 31.9893 64.6347 32.448 62.608 32.448ZM86.2198 17.504V16H91.0198V32H86.2198V30.496C85.1104 31.7973 83.5211 32.448 81.4518 32.448C79.3398 32.448 77.5371 31.6373 76.0438 30.016C74.5504 28.3947 73.8038 26.3893 73.8038 24C73.8038 21.632 74.5504 19.6373 76.0438 18.016C77.5584 16.3733 79.3611 15.552 81.4518 15.552C83.5211 15.552 85.1104 16.2027 86.2198 17.504ZM78.6038 24C78.6038 25.1947 78.9558 26.144 79.6598 26.848C80.3638 27.552 81.2811 27.904 82.4118 27.904C83.5424 27.904 84.4598 27.552 85.1638 26.848C85.8678 26.144 86.2198 25.1947 86.2198 24C86.2198 22.8053 85.8678 21.856 85.1638 21.152C84.4598 20.448 83.5424 20.096 82.4118 20.096C81.2811 20.096 80.3638 20.448 79.6598 21.152C78.9558 21.856 78.6038 22.8053 78.6038 24ZM98.929 20.672C98.929 20.9493 99.153 21.1947 99.601 21.408C100.049 21.6 100.753 21.824 101.713 22.08C105.126 22.8267 106.822 24.5333 106.801 27.2C106.801 28.928 106.161 30.24 104.881 31.136C103.58 32.0107 102.001 32.448 100.145 32.448C96.7743 32.448 94.481 31.1787 93.265 28.64L97.425 26.272C97.8517 27.5307 98.7583 28.16 100.145 28.16C101.297 28.16 101.873 27.8293 101.873 27.168C101.873 26.6987 100.945 26.2293 99.089 25.76C98.4063 25.568 97.8197 25.376 97.329 25.184C96.8383 24.9707 96.305 24.6827 95.729 24.32C95.1743 23.936 94.7477 23.4453 94.449 22.848C94.1503 22.2507 94.001 21.568 94.001 20.8C94.001 19.1573 94.5983 17.8667 95.793 16.928C96.9877 16.0107 98.481 15.552 100.273 15.552C103.068 15.552 105.148 16.6933 106.513 18.976L102.417 21.184C101.905 20.2453 101.19 19.776 100.273 19.776C99.377 19.776 98.929 20.0747 98.929 20.672ZM118.922 15.552C121.012 15.552 122.815 16.3733 124.33 18.016C125.823 19.6373 126.57 21.632 126.57 24C126.57 26.3893 125.823 28.3947 124.33 30.016C122.836 31.6373 121.034 32.448 118.922 32.448C116.852 32.448 115.263 31.7973 114.154 30.496V38.4H109.354V16H114.154V17.504C115.263 16.2027 116.852 15.552 118.922 15.552ZM115.21 26.848C115.935 27.552 116.852 27.904 117.962 27.904C119.071 27.904 119.978 27.552 120.682 26.848C121.407 26.144 121.77 25.1947 121.77 24C121.77 22.8053 121.407 21.856 120.682 21.152C119.978 20.448 119.071 20.096 117.962 20.096C116.852 20.096 115.935 20.448 115.21 21.152C114.506 21.856 114.154 22.8053 114.154 24C114.154 25.1947 114.506 26.144 115.21 26.848ZM133.707 13.76C133.153 14.3147 132.481 14.592 131.691 14.592C130.902 14.592 130.219 14.3147 129.643 13.76C129.089 13.184 128.811 12.5013 128.811 11.712C128.811 10.9227 129.089 10.2507 129.643 9.696C130.219 9.12 130.902 8.832 131.691 8.832C132.481 8.832 133.153 9.12 133.707 9.696C134.283 10.2507 134.571 10.9227 134.571 11.712C134.571 12.5013 134.283 13.184 133.707 13.76ZM134.091 32H129.291V16H134.091V32ZM149.22 17.504V16H154.02V32H149.22V30.496C148.11 31.7973 146.521 32.448 144.452 32.448C142.34 32.448 140.537 31.6373 139.044 30.016C137.55 28.3947 136.804 26.3893 136.804 24C136.804 21.632 137.55 19.6373 139.044 18.016C140.558 16.3733 142.361 15.552 144.452 15.552C146.521 15.552 148.11 16.2027 149.22 17.504ZM141.604 24C141.604 25.1947 141.956 26.144 142.66 26.848C143.364 27.552 144.281 27.904 145.412 27.904C146.542 27.904 147.46 27.552 148.164 26.848C148.868 26.144 149.22 25.1947 149.22 24C149.22 22.8053 148.868 21.856 148.164 21.152C147.46 20.448 146.542 20.096 145.412 20.096C144.281 20.096 143.364 20.448 142.66 21.152C141.956 21.856 141.604 22.8053 141.604 24ZM166.917 15.552C168.645 15.552 170.064 16.1387 171.173 17.312C172.325 18.5067 172.901 20.128 172.901 22.176V32H168.101V22.88C168.101 21.9627 167.845 21.248 167.333 20.736C166.821 20.224 166.149 19.968 165.317 19.968C164.379 19.968 163.643 20.256 163.109 20.832C162.597 21.3867 162.341 22.1973 162.341 23.264V32H157.541V16H162.341V17.504C163.301 16.2027 164.827 15.552 166.917 15.552Z" fill="white"/>
</svg>
