<svg width="48" height="48" viewBox="0 0 48 48" fill="none" xmlns="http://www.w3.org/2000/svg">
<path fill-rule="evenodd" clip-rule="evenodd" d="M33.8001 12C32.8752 7.43611 28.8472 3.99997 24.0168 3.99997C21.3694 3.98879 18.8187 5.03806 16.9373 6.91541C15.5355 8.31423 14.5914 10.0869 14.2015 12H13.8974C10.013 12 6.72729 14.7506 5.8121 19.4858L4.24494 31.1201C2.85411 40.0073 7.28994 44 15.6828 44H32.2986C40.0829 44 44.8437 39.5279 43.8732 31.5908L42.2608 19.5989C41.1591 14.7705 37.9624 12 34.157 12H33.8001ZM29.6593 12C28.8375 9.66919 26.6194 7.99996 24.0084 7.99995C22.418 7.99325 20.8903 8.62173 19.7627 9.74687C19.1205 10.3877 18.6383 11.1595 18.342 12H29.6593ZM15.9998 16L13.8974 16C11.9414 16 10.2932 17.3798 9.75794 20.1318L8.20309 31.6957C7.22846 37.9255 9.53318 40 15.6828 40H32.2986C37.9521 40 40.6957 37.3338 39.845 31.6529L38.3295 20.3136C37.664 17.4198 36.0258 16 34.157 16L31.9998 16H15.9998Z" fill="#DEB887"/>
<g opacity="0.5">
<path fill-rule="evenodd" clip-rule="evenodd" d="M18 24C19.1046 24 20 23.1046 20 22C20 20.8954 19.1046 20 18 20C16.8954 20 16 20.8954 16 22C16 23.1046 16.8954 24 18 24ZM30 24C31.1046 24 32 23.1046 32 22C32 20.8954 31.1046 20 30 20C28.8954 20 28 20.8954 28 22C28 23.1046 28.8954 24 30 24Z" fill="#DEB887"/>
</g>
</svg>
