<svg width="36" height="36" viewBox="0 0 36 36" fill="none" xmlns="http://www.w3.org/2000/svg">
<path fill-rule="evenodd" clip-rule="evenodd" d="M28.5 9H7.5C6.67157 9 6 9.67157 6 10.5V28.5C6 29.3284 6.67157 30 7.5 30H28.5C29.3284 30 30 29.3284 30 28.5V10.5C30 9.67157 29.3284 9 28.5 9ZM7.5 6C5.01472 6 3 8.01472 3 10.5V28.5C3 30.9853 5.01472 33 7.5 33H28.5C30.9853 33 33 30.9853 33 28.5V10.5C33 8.01472 30.9853 6 28.5 6H7.5Z" fill="black"/>
<path fill-rule="evenodd" clip-rule="evenodd" d="M15 18C14.1716 18 13.5 18.6716 13.5 19.5C13.5 20.3284 14.1716 21 15 21H25.5C26.3284 21 27 20.3284 27 19.5C27 18.6716 26.3284 18 25.5 18H15ZM10.5 24C9.67157 24 9 24.6716 9 25.5C9 26.3284 9.67157 27 10.5 27H19.5C20.3284 27 21 26.3284 21 25.5C21 24.6716 20.3284 24 19.5 24H10.5Z" fill="black"/>
<path fill-rule="evenodd" clip-rule="evenodd" d="M10.5 3C9.67157 3 9 3.67157 9 4.5V10.5C9 11.3284 9.67157 12 10.5 12C11.3284 12 12 11.3284 12 10.5V4.5C12 3.67157 11.3284 3 10.5 3ZM25.5 3C24.6716 3 24 3.67157 24 4.5V10.5C24 11.3284 24.6716 12 25.5 12C26.3284 12 27 11.3284 27 10.5V4.5C27 3.67157 26.3284 3 25.5 3Z" fill="black"/>
</svg>
