<svg width="24" height="24" viewBox="0 0 24 24" fill="none" xmlns="http://www.w3.org/2000/svg">
<path fill-rule="evenodd" clip-rule="evenodd" d="M12.001 13.9999C11.6554 13.9995 11.3184 14.0038 10.9902 14.0127L10.3456 14.0368C10.0293 14.052 9.72195 14.0719 9.42385 14.0967L8.84002 14.1525C5.12609 14.5576 2.99988 15.7831 2.99988 17.9972C2.99988 20.1154 4.83475 21.3163 8.22279 21.7779L8.78577 21.8463L9.37572 21.9019C9.57683 21.9184 9.78239 21.9327 9.99235 21.9449L10.6354 21.9755C10.7448 21.9795 10.8552 21.9831 10.9668 21.9861L11.649 21.9983L11.9998 21.9999C12.2359 21.9999 12.4677 21.998 12.6952 21.994L13.3646 21.976C13.474 21.972 13.5823 21.9675 13.6895 21.9624L14.3195 21.926C14.5251 21.9117 14.7263 21.8954 14.923 21.877L15.4995 21.8153C19.0655 21.3838 20.9993 20.1771 20.9996 18.0001C21 15.6164 18.5453 14.3843 14.2809 14.0773L13.6595 14.0398C13.2371 14.0189 12.7986 14.0063 12.3445 14.0018L12.001 13.9999ZM11.999 15.9999C16.6024 16.0045 18.9998 16.8753 18.9996 17.9997C18.9995 18.6392 18.3163 19.1806 16.9127 19.5382L16.512 19.6311C16.0236 19.734 15.4619 19.8175 14.8258 19.8789L14.2622 19.926C14.1653 19.9329 14.0668 19.9394 13.9667 19.9454L13.3482 19.9755C13.242 19.9795 13.1343 19.9831 13.0251 19.9861L12.3511 19.9984L12.0002 19.9999C11.7632 19.9998 11.5325 19.9977 11.3079 19.9935L10.6526 19.9749C10.5465 19.9708 10.4419 19.9662 10.3388 19.9612L9.73873 19.925L9.17525 19.8776C6.35817 19.6044 4.99988 18.897 4.99988 17.9972C4.99988 17.0731 6.62013 16.3177 9.73863 16.0788L10.3409 16.0402C10.8573 16.0132 11.4102 15.9993 11.999 15.9999Z" fill="#C2C2C2"/>
<g opacity="0.5">
<path fill-rule="evenodd" clip-rule="evenodd" d="M12 2C9.23858 2 7 4.23858 7 7C7 9.76142 9.23858 12 12 12C14.7614 12 17 9.76142 17 7C17 4.23858 14.7614 2 12 2ZM12 4C13.6569 4 15 5.34315 15 7C15 8.65685 13.6569 10 12 10C10.3431 10 9 8.65685 9 7C9 5.34315 10.3431 4 12 4Z" fill="#CFCFCF"/>
</g>
</svg>
