<svg width="21" height="21" viewBox="0 0 21 21" fill="none" xmlns="http://www.w3.org/2000/svg">
<g id="Iconly/Light/Setting">
<g id="Setting">
<path id="Path_33946" fill-rule="evenodd" clip-rule="evenodd" d="M18.2057 6.67062L17.6611 5.72554C17.2004 4.92586 16.1793 4.64999 15.3785 5.10884V5.10884C14.9973 5.33339 14.5425 5.3971 14.1143 5.28591C13.6861 5.17473 13.3197 4.89779 13.0959 4.51616C12.9519 4.27359 12.8746 3.99731 12.8716 3.71525V3.71525C12.8846 3.26303 12.714 2.82481 12.3987 2.50042C12.0833 2.17603 11.6501 1.99309 11.1977 1.99328H10.1005C9.65725 1.99327 9.23231 2.16989 8.91966 2.48404C8.60701 2.79819 8.43244 3.22398 8.43457 3.66719V3.66719C8.42143 4.58227 7.67583 5.31717 6.76065 5.31708C6.47859 5.31415 6.20231 5.23679 5.95974 5.09282V5.09282C5.15896 4.63397 4.13788 4.90984 3.67713 5.70953L3.09246 6.67062C2.63227 7.46931 2.90438 8.48974 3.70116 8.95323V8.95323C4.21907 9.25225 4.53812 9.80485 4.53812 10.4029C4.53812 11.0009 4.21907 11.5535 3.70116 11.8525V11.8525C2.9054 12.3129 2.63298 13.3309 3.09246 14.1271V14.1271L3.64509 15.0802C3.86097 15.4698 4.22319 15.7572 4.65158 15.879C5.07997 16.0007 5.53922 15.9467 5.9277 15.729V15.729C6.3096 15.5061 6.7647 15.4451 7.19183 15.5594C7.61896 15.6737 7.98274 15.9539 8.2023 16.3377C8.34627 16.5802 8.42363 16.8565 8.42656 17.1386V17.1386C8.42656 18.0631 9.17599 18.8125 10.1005 18.8125H11.1977C12.1191 18.8125 12.8672 18.0679 12.8716 17.1466V17.1466C12.8695 16.702 13.0452 16.275 13.3596 15.9606C13.6739 15.6462 14.1009 15.4705 14.5456 15.4727C14.8269 15.4802 15.1021 15.5573 15.3465 15.6969V15.6969C16.1451 16.1571 17.1656 15.885 17.6291 15.0882V15.0882L18.2057 14.1271C18.4289 13.744 18.4902 13.2877 18.376 12.8593C18.2617 12.4309 17.9814 12.0656 17.597 11.8445V11.8445C17.2127 11.6234 16.9324 11.2582 16.8181 10.8298C16.7039 10.4014 16.7651 9.94505 16.9883 9.56193C17.1335 9.30851 17.3436 9.09838 17.597 8.95323V8.95323C18.389 8.48999 18.6605 7.47552 18.2057 6.67863V6.67863V6.67062Z" stroke="black" stroke-width="1.5" stroke-linecap="round" stroke-linejoin="round"/>
<ellipse id="Ellipse_737" cx="10.6531" cy="10.4029" rx="2.30664" ry="2.30664" stroke="black" stroke-width="1.5" stroke-linecap="round" stroke-linejoin="round"/>
</g>
</g>
</svg>
