<svg width="45" height="29" viewBox="0 0 45 29" fill="none" xmlns="http://www.w3.org/2000/svg">
<path fill-rule="evenodd" clip-rule="evenodd" d="M13.6216 15.2434C9.23319 15.2434 5.67567 18.8009 5.67567 23.1893V25.4596C5.67567 26.0865 5.16745 26.5947 4.54053 26.5947C3.91361 26.5947 3.4054 26.0865 3.4054 25.4596V23.1893C3.4054 17.547 7.97935 12.9731 13.6216 12.9731C19.2639 12.9731 23.8378 17.547 23.8378 23.1893V25.4596C23.8378 26.0865 23.3296 26.5947 22.7027 26.5947C22.0758 26.5947 21.5676 26.0865 21.5676 25.4596V23.1893C21.5676 18.8009 18.01 15.2434 13.6216 15.2434Z" fill="black"/>
<path fill-rule="evenodd" clip-rule="evenodd" d="M13.6216 12.9731C16.1293 12.9731 18.1621 10.9402 18.1621 8.43252C18.1621 5.92484 16.1293 3.89197 13.6216 3.89197C11.1139 3.89197 9.08106 5.92484 9.08106 8.43252C9.08106 10.9402 11.1139 12.9731 13.6216 12.9731ZM13.6216 15.2433C17.3831 15.2433 20.4324 12.194 20.4324 8.43252C20.4324 4.67101 17.3831 1.6217 13.6216 1.6217C9.8601 1.6217 6.81079 4.67101 6.81079 8.43252C6.81079 12.194 9.8601 15.2433 13.6216 15.2433Z" fill="black"/>
<path fill-rule="evenodd" clip-rule="evenodd" d="M31.5 16.625C27.1508 16.625 23.625 20.1508 23.625 24.5V26.75C23.625 27.3713 23.1213 27.875 22.5 27.875C21.8787 27.875 21.375 27.3713 21.375 26.75V24.5C21.375 18.9081 25.9081 14.375 31.5 14.375C37.0919 14.375 41.625 18.9081 41.625 24.5V26.75C41.625 27.3713 41.1213 27.875 40.5 27.875C39.8787 27.875 39.375 27.3713 39.375 26.75V24.5C39.375 20.1508 35.8492 16.625 31.5 16.625Z" fill="black"/>
<path fill-rule="evenodd" clip-rule="evenodd" d="M31.5 14.375C33.9853 14.375 36 12.3603 36 9.875C36 7.38972 33.9853 5.375 31.5 5.375C29.0147 5.375 27 7.38972 27 9.875C27 12.3603 29.0147 14.375 31.5 14.375ZM31.5 16.625C35.2279 16.625 38.25 13.6029 38.25 9.875C38.25 6.14708 35.2279 3.125 31.5 3.125C27.7721 3.125 24.75 6.14708 24.75 9.875C24.75 13.6029 27.7721 16.625 31.5 16.625Z" fill="black"/>
</svg>
