<svg width="48" height="48" viewBox="0 0 48 48" fill="none" xmlns="http://www.w3.org/2000/svg">
<path fill-rule="evenodd" clip-rule="evenodd" d="M7.82132 26.008C8.92147 25.9094 9.89328 26.7213 9.9919 27.8214C10.0905 28.9216 9.27863 29.8934 8.17847 29.992C7.60874 30.0431 7.0475 30.1345 6.4679 30.2743L5.8812 30.4306C4.88555 30.6839 4.28541 31.0732 4.12315 31.5167C3.95872 31.9639 3.95872 32.5142 4.12493 32.9674C4.21646 33.2183 4.81468 33.6652 6.06906 34.1195C7.10761 34.4957 7.64462 35.6425 7.26849 36.681C6.89236 37.7196 5.74553 38.2566 4.70697 37.8805C2.44968 37.063 0.953241 35.945 0.368348 34.3415C-0.123015 33.0019 -0.123015 31.4741 0.36779 30.1393C1.03674 28.311 2.5324 27.2477 4.41694 26.6856L4.82657 26.5727C5.80312 26.2871 6.80416 26.0992 7.82132 26.008ZM39.945 26.0006L40.1785 26.008C40.9922 26.0809 41.7955 26.2158 42.5492 26.4035L43.1046 26.5541C45.2483 27.0995 46.9139 28.1797 47.6334 30.1396C48.122 31.4754 48.122 33.0006 47.6333 34.3401C46.9192 36.2911 45.2827 37.3559 43.1282 37.9321C42.0611 38.2175 40.9647 37.5838 40.6794 36.5167C40.394 35.4496 41.0277 34.3532 42.0948 34.0679C43.1176 33.7944 43.716 33.405 43.8762 32.9672C44.041 32.5155 44.041 31.9626 43.8776 31.5157C43.7154 31.0737 43.1144 30.684 42.05 30.4119C41.3252 30.1999 40.5808 30.0601 39.8213 29.992C38.7212 29.8934 37.9093 28.9216 38.0079 27.8214C38.0995 26.7998 38.944 26.0268 39.945 26.0006ZM23.9998 28C15.037 28 9.99989 30.5186 9.99989 36C9.99989 41.4814 15.037 44 23.9998 44C32.9627 44 37.9999 41.4814 37.9999 36C37.9999 30.5186 32.9627 28 23.9998 28ZM23.9998 32C31.037 32 33.9999 33.4814 33.9999 36C33.9999 38.5186 31.037 40 23.9998 40C16.9627 40 13.9999 38.5186 13.9999 36C13.9999 33.4814 16.9627 32 23.9998 32Z" fill="#DEB887"/>
<g opacity="0.5">
<path fill-rule="evenodd" clip-rule="evenodd" d="M23.9999 4C18.4554 4 14 8.45496 14 13.9991C14 19.5447 18.4551 24 23.9999 24C29.5449 24 34 19.5447 34 13.9991C34 8.45493 29.5445 4 23.9999 4ZM23.9999 8C27.3355 8 30 10.6642 30 13.9991C30 17.3356 27.3357 20 23.9999 20C20.6643 20 18 17.3356 18 13.9991C18 10.6642 20.6645 8 23.9999 8ZM10 8C11.1046 8 12 8.89543 12 10C12 11.1046 11.1046 12 10 12C7.79146 12 6 13.7912 6 16C6 18.1084 7.6323 19.8363 9.70155 19.989L10 20C11.1046 20 12 20.8954 12 22C12 23.1046 11.1046 24 10 24C5.58243 24 2 20.418 2 16C2 11.582 5.58243 8 10 8ZM38 8C42.4176 8 46 11.582 46 16C46 20.418 42.4176 24 38 24C36.8954 24 36 23.1046 36 22C36 20.9743 36.7721 20.129 37.7668 20.0135L38 20C40.2086 20 42 18.2088 42 16C42 13.7912 40.2086 12 38 12C36.8954 12 36 11.1046 36 10C36 8.89543 36.8954 8 38 8Z" fill="#DEB887"/>
</g>
</svg>
