<svg width="33" height="33" viewBox="0 0 33 33" fill="none" xmlns="http://www.w3.org/2000/svg">
<g clip-path="url(#clip0)">
<path d="M29.5935 5.82236C31.5082 3.56877 29.8411 -0.0258311 26.8562 7.89283e-05C23.8715 -0.0258956 22.2039 3.56935 24.1189 5.82236C22.101 6.83079 20.7117 8.9172 20.7117 11.3223V13.0664C20.2755 12.6551 19.7798 12.3063 19.2382 12.0356C21.1529 9.78203 19.4857 6.18743 16.5008 6.21334C13.5162 6.18736 11.8485 9.78261 13.7635 12.0356C11.7456 13.0441 10.3564 15.1305 10.3564 17.5356V19.2797C9.92008 18.8684 9.42437 18.5195 8.88278 18.2489C10.7975 15.9953 9.13034 12.4007 6.1454 12.4266C3.16078 12.4006 1.49313 15.9959 3.40815 18.2489C1.39019 19.2573 0.000976562 21.3437 0.000976562 23.7488V24.7843C0.000976562 26.1217 0.869415 27.2598 2.07204 27.6645V32.0332C2.07204 32.5671 2.50491 33 3.03883 33H9.25209C9.78602 33 10.2189 32.5671 10.2189 32.0332V27.6645C11.5224 27.2392 12.3917 25.9266 12.2899 24.5075C12.3353 24.5253 12.381 24.5424 12.4274 24.558V32.0332C12.4274 32.5671 12.8603 33 13.3942 33H19.6075C20.1414 33 20.5743 32.5671 20.5743 32.0332V24.5579C21.8773 24.1326 22.7468 22.8208 22.6453 21.4021C22.6907 21.4199 22.7364 21.437 22.7828 21.4526V32.0332C22.7828 32.5671 23.2157 33 23.7496 33H29.9629C30.4968 33 30.9297 32.5671 30.9297 32.0332V21.4526C32.1323 21.0479 33.0007 19.9097 33.0007 18.5724V11.3223C33.0008 8.9172 31.6116 6.83079 29.5935 5.82236ZM6.1454 14.3602C7.03981 14.3602 7.76748 15.0879 7.76748 15.9823C7.68595 18.1312 4.60459 18.1306 4.52338 15.9823C4.52338 15.0879 5.25099 14.3602 6.1454 14.3602ZM10.3564 24.7843C10.3564 25.3932 9.86098 25.8886 9.25209 25.8886C8.71816 25.8886 8.2853 26.3215 8.2853 26.8554V31.0663H4.00563V26.8554C4.00563 26.3215 3.57276 25.8886 3.03883 25.8886C2.42995 25.8886 1.93456 25.3932 1.93456 24.7843V23.7488C1.93456 21.4269 3.82361 19.5379 6.14546 19.5379C8.46731 19.5379 10.3564 21.427 10.3564 23.7488V24.7843ZM16.5008 8.14692C17.3953 8.14692 18.1229 8.87459 18.1229 9.76901C18.0414 11.9179 14.96 11.9173 14.8788 9.76901C14.8788 8.87459 15.6064 8.14692 16.5008 8.14692ZM20.7117 21.6777C20.7117 22.2866 20.2164 22.782 19.6075 22.782C19.0735 22.782 18.6407 23.2148 18.6407 23.7488V31.0663H14.361V23.7488C14.361 23.2148 13.9281 22.782 13.3942 22.782C12.7853 22.782 12.2899 22.2866 12.2899 21.6777V17.5355C12.5006 11.9585 20.5005 11.9568 20.7118 17.5356C20.7117 17.5356 20.7117 21.6777 20.7117 21.6777ZM26.8562 1.93367C27.7506 1.93367 28.4783 2.66134 28.4783 3.55575C28.3968 5.70467 25.3154 5.70409 25.2342 3.55575C25.2342 2.66134 25.9618 1.93367 26.8562 1.93367ZM31.0672 18.5724C31.0672 19.1813 30.5718 19.6766 29.9629 19.6766C29.429 19.6766 28.9961 20.1095 28.9961 20.6434V31.0664H24.7165V20.6434C24.7165 20.1095 24.2836 19.6766 23.7497 19.6766C23.1408 19.6766 22.6454 19.1813 22.6454 18.5724V11.3223C22.8556 5.74644 30.8556 5.74264 31.0673 11.3224C31.0672 11.3223 31.0672 18.5724 31.0672 18.5724Z" fill="black"/>
</g>
<defs>
<clipPath id="clip0">
<rect width="33" height="33" fill="white"/>
</clipPath>
</defs>
</svg>
