<svg width="190" height="44" viewBox="0 0 190 44" fill="none" xmlns="http://www.w3.org/2000/svg">
<path d="M25.7755 0.849767C23.0475 0.993009 21.0017 3.4475 21.0017 6.18417V16.5152H0.819824C0.819824 20.0996 1.93572 23.4219 3.8404 26.1527C1.97608 27.9879 0.819824 30.5418 0.819824 33.367H15.9562H17.638C18.8144 33.367 19.8252 33.367 21.0017 33.367C26.5743 33.367 31.0926 28.8398 31.0926 23.2559C31.0926 22.7607 31.0926 6.01237 31.0926 5.89853C31.0926 3.01609 28.6859 0.697257 25.7755 0.849767Z" fill="white"/>
<path d="M22.2382 27.9325C24.4638 27.091 26.0473 24.9377 26.0473 22.4134C26.0473 19.1559 23.4118 16.5153 20.1609 16.5153H13.4336C13.4337 22.0173 17.1842 26.616 22.2382 27.9325Z" fill="#FF6230"/>
<path d="M33.363 5.95105V9.26895H36.1381C36.1381 7.60903 34.9398 6.2302 33.363 5.95105Z" fill="#FFD87D"/>
<path d="M26.0682 5.05591C25.604 5.05591 25.2273 5.43339 25.2273 5.89851C25.2273 6.36362 25.604 6.7411 26.0682 6.7411C26.5324 6.7411 26.9091 6.36362 26.9091 5.89851C26.9091 5.43339 26.5324 5.05591 26.0682 5.05591Z" fill="black"/>
<path d="M19.3412 24.0985C19.8053 24.0985 20.1821 23.721 20.1821 23.2559C20.1821 22.7908 19.8053 22.4133 19.3412 22.4133C18.877 22.4133 18.5002 22.7908 18.5002 23.2559C18.5002 23.721 18.877 24.0985 19.3412 24.0985Z" fill="black"/>
<path d="M0.840917 34.2096H15.1363V41.4559H14.2954C13.831 41.4559 13.4545 41.8331 13.4545 42.2985C13.4545 42.7638 13.831 43.1411 14.2954 43.1411H24.3863C24.8507 43.1411 25.2273 42.7638 25.2273 42.2985C25.2273 41.8331 24.8507 41.4559 24.3863 41.4559H21.8636V34.1775C27.5 33.7458 31.9545 29.0124 31.9545 23.2559V10.1115H36.1591C36.6234 10.1115 37 9.73429 37 9.26893C37 6.94588 35.1138 5.05593 32.7954 5.05593H31.8945C31.4848 2.15048 28.9127 -0.156805 25.7525 0.00834469C22.5876 0.174505 20.1818 2.98322 20.1818 6.18417V15.6726C18.2533 15.6726 3.03302 15.6726 0.840917 15.6726C0.376478 15.6726 0 16.0498 0 16.5152C0 19.9284 0.961841 23.2137 2.78772 26.0606C0.985386 28.0718 0 30.6398 0 33.367C0 33.8324 0.376478 34.2096 0.840917 34.2096ZM16.8182 41.4559V34.2096C17.84 34.2096 19.1814 34.2096 20.1818 34.2096V41.4559H16.8182ZM35.174 8.42633H31.9545V6.74113H32.7954C33.8917 6.74113 34.827 7.44554 35.174 8.42633ZM20.1818 17.3578C22.9639 17.3578 25.2273 19.6257 25.2273 22.4133C25.2273 25.2021 22.9754 27.4688 20.1818 27.4688H17.6591C14.6619 27.4688 11.8183 26.2326 9.77162 24.0984H15.9773C16.4417 24.0984 16.8182 23.7212 16.8182 23.2558C16.8182 22.7904 16.4417 22.4132 15.9773 22.4132H8.4455C8.10274 21.8767 7.81027 21.3129 7.56699 20.728H14.2954C14.7599 20.728 15.1363 20.3508 15.1363 19.8854C15.1363 19.4201 14.7599 19.0428 14.2954 19.0428H7.02031C6.89005 18.4898 6.80243 17.9266 6.7592 17.3576H20.1818V17.3578ZM5.07426 17.3578C5.50817 23.9414 10.9652 29.1541 17.6591 29.1541H20.1818C23.8849 29.1541 26.9091 26.1527 26.9091 22.4134C26.9091 19.2782 24.7619 16.6362 21.8637 15.886V6.18417C21.8637 3.82178 23.6478 1.80628 25.8405 1.69118C28.2826 1.56294 30.2728 3.50842 30.2728 5.89862V23.256C30.2728 28.3666 26.1232 32.5245 21.0228 32.5245C19.8464 32.5245 18.8356 32.5245 17.6592 32.5245C9.22881 32.5245 2.14425 25.9032 1.70361 17.3579H5.07426V17.3578ZM3.79405 27.4733C5.51036 29.6509 7.69464 31.3683 10.1477 32.5244H1.71917C1.88542 30.6593 2.60432 28.914 3.79405 27.4733Z" fill="black"/>
<path d="M64.184 33.504C60.416 33.504 57.284 32.256 54.788 29.76C52.316 27.264 51.08 24.144 51.08 20.4C51.08 16.656 52.316 13.548 54.788 11.076C57.26 8.556 60.392 7.296 64.184 7.296C66.44 7.296 68.528 7.824 70.448 8.88C72.368 9.912 73.88 11.328 74.984 13.128L70.016 16.008C69.464 15.024 68.672 14.268 67.64 13.74C66.632 13.188 65.48 12.912 64.184 12.912C61.928 12.912 60.14 13.596 58.82 14.964C57.5 16.308 56.84 18.12 56.84 20.4C56.84 22.68 57.5 24.492 58.82 25.836C60.14 27.204 61.928 27.888 64.184 27.888C65.456 27.888 66.608 27.612 67.64 27.06C68.696 26.508 69.488 25.752 70.016 24.792L74.984 27.672C73.904 29.472 72.404 30.9 70.484 31.956C68.564 32.988 66.464 33.504 64.184 33.504ZM90.7472 16.692V15H96.1472V33H90.7472V31.308C89.4992 32.772 87.7112 33.504 85.3832 33.504C83.0072 33.504 80.9792 32.592 79.2992 30.768C77.6192 28.944 76.7792 26.688 76.7792 24C76.7792 21.336 77.6192 19.092 79.2992 17.268C81.0032 15.42 83.0312 14.496 85.3832 14.496C87.7112 14.496 89.4992 15.228 90.7472 16.692ZM82.1792 24C82.1792 25.344 82.5752 26.412 83.3672 27.204C84.1592 27.996 85.1912 28.392 86.4632 28.392C87.7352 28.392 88.7672 27.996 89.5592 27.204C90.3512 26.412 90.7472 25.344 90.7472 24C90.7472 22.656 90.3512 21.588 89.5592 20.796C88.7672 20.004 87.7352 19.608 86.4632 19.608C85.1912 19.608 84.1592 20.004 83.3672 20.796C82.5752 21.588 82.1792 22.656 82.1792 24ZM105.045 20.256C105.045 20.568 105.297 20.844 105.801 21.084C106.305 21.3 107.097 21.552 108.177 21.84C112.017 22.68 113.925 24.6 113.901 27.6C113.901 29.544 113.181 31.02 111.741 32.028C110.277 33.012 108.501 33.504 106.413 33.504C102.621 33.504 100.041 32.076 98.6731 29.22L103.353 26.556C103.833 27.972 104.853 28.68 106.413 28.68C107.709 28.68 108.357 28.308 108.357 27.564C108.357 27.036 107.313 26.508 105.225 25.98C104.457 25.764 103.797 25.548 103.245 25.332C102.693 25.092 102.093 24.768 101.445 24.36C100.821 23.928 100.341 23.376 100.005 22.704C99.6691 22.032 99.5011 21.264 99.5011 20.4C99.5011 18.552 100.173 17.1 101.517 16.044C102.861 15.012 104.541 14.496 106.557 14.496C109.701 14.496 112.041 15.78 113.577 18.348L108.969 20.832C108.393 19.776 107.589 19.248 106.557 19.248C105.549 19.248 105.045 19.584 105.045 20.256ZM127.537 14.496C129.889 14.496 131.917 15.42 133.621 17.268C135.301 19.092 136.141 21.336 136.141 24C136.141 26.688 135.301 28.944 133.621 30.768C131.941 32.592 129.913 33.504 127.537 33.504C125.209 33.504 123.421 32.772 122.173 31.308V40.2H116.773V15H122.173V16.692C123.421 15.228 125.209 14.496 127.537 14.496ZM123.361 27.204C124.177 27.996 125.209 28.392 126.457 28.392C127.705 28.392 128.725 27.996 129.517 27.204C130.333 26.412 130.741 25.344 130.741 24C130.741 22.656 130.333 21.588 129.517 20.796C128.725 20.004 127.705 19.608 126.457 19.608C125.209 19.608 124.177 20.004 123.361 20.796C122.569 21.588 122.173 22.656 122.173 24C122.173 25.344 122.569 26.412 123.361 27.204ZM144.171 12.48C143.547 13.104 142.791 13.416 141.903 13.416C141.015 13.416 140.247 13.104 139.599 12.48C138.975 11.832 138.663 11.064 138.663 10.176C138.663 9.288 138.975 8.532 139.599 7.908C140.247 7.26 141.015 6.936 141.903 6.936C142.791 6.936 143.547 7.26 144.171 7.908C144.819 8.532 145.143 9.288 145.143 10.176C145.143 11.064 144.819 11.832 144.171 12.48ZM144.603 33H139.203V15H144.603V33ZM161.622 16.692V15H167.022V33H161.622V31.308C160.374 32.772 158.586 33.504 156.258 33.504C153.882 33.504 151.854 32.592 150.174 30.768C148.494 28.944 147.654 26.688 147.654 24C147.654 21.336 148.494 19.092 150.174 17.268C151.878 15.42 153.906 14.496 156.258 14.496C158.586 14.496 160.374 15.228 161.622 16.692ZM153.054 24C153.054 25.344 153.45 26.412 154.242 27.204C155.034 27.996 156.066 28.392 157.338 28.392C158.61 28.392 159.642 27.996 160.434 27.204C161.226 26.412 161.622 25.344 161.622 24C161.622 22.656 161.226 21.588 160.434 20.796C159.642 20.004 158.61 19.608 157.338 19.608C156.066 19.608 155.034 20.004 154.242 20.796C153.45 21.588 153.054 22.656 153.054 24ZM181.532 14.496C183.476 14.496 185.072 15.156 186.32 16.476C187.616 17.82 188.264 19.644 188.264 21.948V33H182.864V22.74C182.864 21.708 182.576 20.904 182 20.328C181.424 19.752 180.668 19.464 179.732 19.464C178.676 19.464 177.848 19.788 177.248 20.436C176.672 21.06 176.384 21.972 176.384 23.172V33H170.984V15H176.384V16.692C177.464 15.228 179.18 14.496 181.532 14.496Z" fill="black"/>
</svg>
