<svg width="185" height="24" viewBox="0 0 185 24" fill="none" xmlns="http://www.w3.org/2000/svg">
<g clip-path="url(#clip0)">
<path d="M13.246 1.46385L16.356 7.76385L23.31 8.77585C23.4636 8.79799 23.608 8.86271 23.7267 8.96267C23.8454 9.06263 23.9337 9.19383 23.9817 9.34141C24.0297 9.489 24.0354 9.64707 23.9982 9.79773C23.9609 9.94839 23.8822 10.0856 23.771 10.1938L18.738 15.0938L19.926 22.0198C19.9522 22.1728 19.9351 22.3301 19.8766 22.4739C19.8181 22.6176 19.7206 22.7421 19.595 22.8334C19.4695 22.9246 19.3209 22.9789 19.1661 22.9901C19.0113 23.0013 18.8564 22.969 18.719 22.8968L12.5 19.6318L6.28003 22.8998C6.14251 22.9717 5.98765 23.0037 5.83291 22.9923C5.67816 22.9809 5.52969 22.9265 5.40421 22.8352C5.27873 22.7439 5.18124 22.6194 5.12273 22.4757C5.06421 22.332 5.047 22.1748 5.07303 22.0218L6.26103 15.0998L1.22803 10.1998C1.11681 10.0916 1.03814 9.95439 1.0009 9.80373C0.963663 9.65307 0.969358 9.495 1.01734 9.34741C1.06532 9.19983 1.15367 9.06863 1.27238 8.96867C1.39109 8.86871 1.53542 8.80399 1.68903 8.78185L8.64303 7.76485L11.753 1.46485C11.8218 1.32567 11.9281 1.20849 12.06 1.12653C12.1918 1.04457 12.344 1.00108 12.4992 1.00098C12.6545 1.00087 12.8067 1.04416 12.9386 1.12594C13.0706 1.20773 13.177 1.32477 13.246 1.46385Z" fill="#FF6E30"/>
</g>
<g clip-path="url(#clip1)">
<path d="M53.246 1.46385L56.356 7.76385L63.31 8.77585C63.4636 8.79799 63.6079 8.86271 63.7266 8.96267C63.8454 9.06263 63.9337 9.19383 63.9817 9.34141C64.0297 9.489 64.0354 9.64707 63.9981 9.79773C63.9609 9.94839 63.8822 10.0856 63.771 10.1938L58.738 15.0938L59.926 22.0198C59.9522 22.1728 59.9351 22.3301 59.8766 22.4739C59.8181 22.6176 59.7206 22.7421 59.595 22.8334C59.4694 22.9246 59.3209 22.9789 59.1661 22.9901C59.0113 23.0013 58.8564 22.969 58.719 22.8968L52.5 19.6318L46.28 22.8998C46.1425 22.9717 45.9876 23.0037 45.8329 22.9923C45.6781 22.9809 45.5297 22.9265 45.4042 22.8352C45.2787 22.7439 45.1812 22.6194 45.1227 22.4757C45.0642 22.332 45.047 22.1748 45.073 22.0218L46.261 15.0998L41.228 10.1998C41.1168 10.0916 41.0381 9.95439 41.0009 9.80373C40.9636 9.65307 40.9693 9.495 41.0173 9.34741C41.0653 9.19983 41.1536 9.06863 41.2724 8.96867C41.3911 8.86871 41.5354 8.80399 41.689 8.78185L48.643 7.76485L51.753 1.46485C51.8218 1.32567 51.9281 1.20849 52.06 1.12653C52.1918 1.04457 52.3439 1.00108 52.4992 1.00098C52.6544 1.00087 52.8066 1.04416 52.9386 1.12594C53.0705 1.20773 53.177 1.32477 53.246 1.46385Z" fill="#FF6E30"/>
</g>
<g clip-path="url(#clip2)">
<path d="M93.246 1.46385L96.356 7.76385L103.31 8.77585C103.464 8.79799 103.608 8.86271 103.727 8.96267C103.845 9.06263 103.934 9.19383 103.982 9.34141C104.03 9.489 104.035 9.64707 103.998 9.79773C103.961 9.94839 103.882 10.0856 103.771 10.1938L98.738 15.0938L99.926 22.0198C99.9522 22.1728 99.9351 22.3301 99.8766 22.4739C99.8181 22.6176 99.7206 22.7421 99.595 22.8334C99.4694 22.9246 99.3209 22.9789 99.1661 22.9901C99.0113 23.0013 98.8564 22.969 98.719 22.8968L92.5 19.6318L86.28 22.8998C86.1425 22.9717 85.9876 23.0037 85.8329 22.9923C85.6781 22.9809 85.5297 22.9265 85.4042 22.8352C85.2787 22.7439 85.1812 22.6194 85.1227 22.4757C85.0642 22.332 85.047 22.1748 85.073 22.0218L86.261 15.0998L81.228 10.1998C81.1168 10.0916 81.0381 9.95439 81.0009 9.80373C80.9636 9.65307 80.9693 9.495 81.0173 9.34741C81.0653 9.19983 81.1536 9.06863 81.2724 8.96867C81.3911 8.86871 81.5354 8.80399 81.689 8.78185L88.643 7.76485L91.753 1.46485C91.8218 1.32567 91.9281 1.20849 92.06 1.12653C92.1918 1.04457 92.3439 1.00108 92.4992 1.00098C92.6544 1.00087 92.8066 1.04416 92.9386 1.12594C93.0705 1.20773 93.177 1.32477 93.246 1.46385Z" fill="#FF6E30"/>
</g>
<g clip-path="url(#clip3)">
<path d="M133.246 1.46385L136.356 7.76385L143.31 8.77585C143.464 8.79799 143.608 8.86271 143.727 8.96267C143.845 9.06263 143.934 9.19383 143.982 9.34141C144.03 9.489 144.035 9.64707 143.998 9.79773C143.961 9.94839 143.882 10.0856 143.771 10.1938L138.738 15.0938L139.926 22.0198C139.952 22.1728 139.935 22.3301 139.877 22.4739C139.818 22.6176 139.721 22.7421 139.595 22.8334C139.469 22.9246 139.321 22.9789 139.166 22.9901C139.011 23.0013 138.856 22.969 138.719 22.8968L132.5 19.6318L126.28 22.8998C126.142 22.9717 125.988 23.0037 125.833 22.9923C125.678 22.9809 125.53 22.9265 125.404 22.8352C125.279 22.7439 125.181 22.6194 125.123 22.4757C125.064 22.332 125.047 22.1748 125.073 22.0218L126.261 15.0998L121.228 10.1998C121.117 10.0916 121.038 9.95439 121.001 9.80373C120.964 9.65307 120.969 9.495 121.017 9.34741C121.065 9.19983 121.154 9.06863 121.272 8.96867C121.391 8.86871 121.535 8.80399 121.689 8.78185L128.643 7.76485L131.753 1.46485C131.822 1.32567 131.928 1.20849 132.06 1.12653C132.192 1.04457 132.344 1.00108 132.499 1.00098C132.654 1.00087 132.807 1.04416 132.939 1.12594C133.071 1.20773 133.177 1.32477 133.246 1.46385Z" fill="#FF6E30"/>
</g>
<g clip-path="url(#clip4)">
<path d="M173.246 1.46385L176.356 7.76385L183.31 8.77585C183.464 8.79799 183.608 8.86271 183.727 8.96267C183.845 9.06263 183.934 9.19383 183.982 9.34141C184.03 9.489 184.035 9.64707 183.998 9.79773C183.961 9.94839 183.882 10.0856 183.771 10.1938L178.738 15.0938L179.926 22.0198C179.952 22.1728 179.935 22.3301 179.877 22.4739C179.818 22.6176 179.721 22.7421 179.595 22.8334C179.469 22.9246 179.321 22.9789 179.166 22.9901C179.011 23.0013 178.856 22.969 178.719 22.8968L172.5 19.6318L166.28 22.8998C166.142 22.9717 165.988 23.0037 165.833 22.9923C165.678 22.9809 165.53 22.9265 165.404 22.8352C165.279 22.7439 165.181 22.6194 165.123 22.4757C165.064 22.332 165.047 22.1748 165.073 22.0218L166.261 15.0998L161.228 10.1998C161.117 10.0916 161.038 9.95439 161.001 9.80373C160.964 9.65307 160.969 9.495 161.017 9.34741C161.065 9.19983 161.154 9.06863 161.272 8.96867C161.391 8.86871 161.535 8.80399 161.689 8.78185L168.643 7.76485L171.753 1.46485C171.822 1.32567 171.928 1.20849 172.06 1.12653C172.192 1.04457 172.344 1.00108 172.499 1.00098C172.654 1.00087 172.807 1.04416 172.939 1.12594C173.071 1.20773 173.177 1.32477 173.246 1.46385Z" fill="#FF6E30"/>
</g>
<defs>
<clipPath id="clip0">
<rect width="24" height="24" fill="white" transform="translate(0.5)"/>
</clipPath>
<clipPath id="clip1">
<rect width="24" height="24" fill="white" transform="translate(40.5)"/>
</clipPath>
<clipPath id="clip2">
<rect width="24" height="24" fill="white" transform="translate(80.5)"/>
</clipPath>
<clipPath id="clip3">
<rect width="24" height="24" fill="white" transform="translate(120.5)"/>
</clipPath>
<clipPath id="clip4">
<rect width="24" height="24" fill="white" transform="translate(160.5)"/>
</clipPath>
</defs>
</svg>
