<svg width="14" height="16" viewBox="0 0 14 16" fill="none" xmlns="http://www.w3.org/2000/svg">
<path d="M0.789062 6.5H13.2109C13.4453 6.5 13.5625 6.61719 13.5625 6.85156V14.4688C13.5625 14.8594 13.4258 15.1914 13.1523 15.4648C12.8789 15.7383 12.5469 15.875 12.1562 15.875H1.84375C1.45312 15.875 1.12109 15.7383 0.847656 15.4648C0.574219 15.1914 0.4375 14.8594 0.4375 14.4688V6.85156C0.4375 6.61719 0.554688 6.5 0.789062 6.5ZM13.5625 5.21094C13.5625 5.44531 13.4453 5.5625 13.2109 5.5625H0.789062C0.554688 5.5625 0.4375 5.44531 0.4375 5.21094V4.15625C0.4375 3.76563 0.574219 3.43359 0.847656 3.16016C1.12109 2.88672 1.45312 2.75 1.84375 2.75H3.25V1.22656C3.25 0.992188 3.36719 0.875 3.60156 0.875H4.77344C5.00781 0.875 5.125 0.992188 5.125 1.22656V2.75H8.875V1.22656C8.875 0.992188 8.99219 0.875 9.22656 0.875H10.3984C10.6328 0.875 10.75 0.992188 10.75 1.22656V2.75H12.1562C12.5469 2.75 12.8789 2.88672 13.1523 3.16016C13.4258 3.43359 13.5625 3.76563 13.5625 4.15625V5.21094Z" fill="#7F828A"/>
</svg>
