<svg width="29" height="29" viewBox="0 0 29 29" fill="none" xmlns="http://www.w3.org/2000/svg">
<path d="M8.54247 18.6577C8.54247 18.1761 8.20828 17.8889 7.61865 17.8889C7.37787 17.8889 7.21481 17.9127 7.12952 17.9354V19.4806C7.23051 19.5034 7.35465 19.5109 7.52578 19.5109C8.15427 19.5109 8.54247 19.1934 8.54247 18.6577Z" fill="#7F6CA7"/>
<path d="M12.1926 17.905C11.9286 17.905 11.7579 17.9278 11.657 17.9515V21.3737C11.758 21.3974 11.921 21.3974 12.0685 21.3974C13.1396 21.4049 13.8383 20.8153 13.8383 19.5659C13.8458 18.4794 13.2092 17.905 12.1926 17.905Z" fill="#7F6CA7"/>
<path d="M18.9743 0H7.32668C5.62508 0 4.24016 1.38588 4.24016 3.08652V14.4999H3.9387C3.25192 14.4999 2.69495 15.0564 2.69495 15.7438V23.2866C2.69495 23.9739 3.25186 24.5303 3.9387 24.5303H4.24016V25.9134C4.24016 27.6159 5.62508 28.9999 7.32668 28.9999H23.2193C24.9198 28.9999 26.3049 27.6159 26.3049 25.9134V7.30498L18.9743 0ZM5.95782 17.105C6.32232 17.0434 6.83467 16.9969 7.55651 16.9969C8.28599 16.9969 8.80591 17.1362 9.15526 17.4159C9.48896 17.6795 9.71416 18.1145 9.71416 18.6265C9.71416 19.1384 9.54351 19.5735 9.23303 19.8683C8.82919 20.2485 8.23198 20.4191 7.53335 20.4191C7.37787 20.4191 7.2385 20.4114 7.12951 20.3963V22.2667H5.95782V17.105ZM23.2193 27.1097H7.32668C6.66781 27.1097 6.13129 26.5732 6.13129 25.9134V24.5303H20.9465C21.6334 24.5303 22.1903 23.9739 22.1903 23.2866V15.7438C22.1903 15.0564 21.6334 14.4999 20.9465 14.4999H6.13129V3.08652C6.13129 2.42862 6.66787 1.89209 7.32668 1.89209L18.2671 1.88066V5.92463C18.2671 7.10582 19.2255 8.06513 20.4076 8.06513L24.3691 8.05376L24.4137 25.9134C24.4137 26.5732 23.8781 27.1097 23.2193 27.1097ZM10.4697 22.243V17.105C10.9043 17.0358 11.4707 16.9969 12.0684 16.9969C13.0618 16.9969 13.706 17.1752 14.2108 17.5552C14.754 17.9591 15.0952 18.6028 15.0952 19.527C15.0952 20.528 14.7307 21.2191 14.2259 21.6456C13.6751 22.1035 12.8367 22.3206 11.8124 22.3206C11.199 22.3206 10.7645 22.2818 10.4697 22.243ZM18.9402 19.201V20.1631H17.0618V22.2667H15.8744V17.0358H19.0719V18.0055H17.0618V19.201H18.9402Z" fill="#7F6CA7"/>
</svg>
